[img]http://img833.imageshack.us/img833/1298/killings.jpg[/img]
[code]
Killing.Them.Softly.2012.DVDRIP.XVID.AC3.5.1-26K
 
http://uk.imdb.com/title/tt1764234/

Plot:
Jackie Cogan is an enforcer hired to restore order after three dumb guys rob a Mob protected card game, causing 

the local criminal economy to collapse.

Sources - Audio-nLiBRA....Thanks :P
          VIDEO-nLiBRA.....Thanks :P
          Subs-ENGLISH.SRT IN TORRENT.... :p

Video
ID                                       : 0
Format                                   : MPEG-4 Visual
Format profile                           : Simple@L5
Format settings, BVOP                    : No
Format settings, QPel                    : No
Format settings, GMC                     : No warppoints
Format settings, Matrix                  : Default (H.263)
Codec ID                                 : XVID
Codec ID/Hint                            : XviD
Duration                                 : 1h 37mn
Bit rate                                 : 1 745 Kbps
Width                                    : 720 pixels
Height                                   : 400 pixels
Display aspect ratio                     : 16:9
Frame rate                               : 23.976 fps
Color space                              : YUV
Chroma subsampling                       : 4:2:0
Bit depth                                : 8 bits
Scan type                                : Progressive
Compression mode                         : Lossy
Bits/(Pixel*Frame)                       : 0.253
Stream size                              : 1.19 GiB (82%)
Writing library                          : XviD 64

Audio
ID                                       : 1
Format                                   : AC-3
Format/Info                              : Audio Coding 3
Mode extension                           : CM (complete main)
Format settings, Endianness              : Big
Codec ID                                 : 2000
Duration                                 : 1h 37mn
Bit rate mode                            : Constant
Bit rate                                 : 384 Kbps
Channel(s)                               : 6 channels
Channel positions                        : Front: L C R, Side: L R, LFE
Sampling rate                            : 48.0 KHz
Bit depth                                : 16 bits
Compression mode                         : Lossy
Stream size                              : 267 MiB (18%)
Alignment                                : Split accross interleaves
Interleave, duration                     : 5457 ms (130.84 video frames)


Notes -
ENJOY

[/code]

Screens:
[img]http://img51.imageshack.us/img51/8917/vlcsnap2012122821h58m32.png[/img]
[img]http://img28.imageshack.us/img28/3955/vlcsnap2012122821h58m02.png[/img]
[IMG]http://i.imgur.com/KTB5k.png[/IMG]
[IMG]http://i.imgur.com/TU8cI.png[/IMG]

Greetz:
XtremeEncode|CM8|RX|VISION|HDSCENE|xTriLL|DTRG|CRYS|BIDA|RX|REFILL|INSPiRAL|AXED|HOPE|Anonymous|NOIR|Blackjesus|

Gabroo Punjab Deh|UNiQUE|DQ1|RESiSTANCE|HS||LEGION|STN|BOBBYBLUE|LIFT

To all the people who have helped me  you know who you are

Anything to offer email us @: 26k@hushmail.me
<<bullying has to be stopped now!>>